<svg xmlns="http://www.w3.org/2000/svg" height="40" width="40" fill="white"><path d="m20 16.292-1.958-1.959L21 11.375h-7.375v-2.75H21l-2.958-2.958L20 3.708 26.292 10Zm-8.042 20.375q-1.291 0-2.208-.917-.917-.917-.917-2.208 0-1.292.917-2.188.917-.896 2.208-.896 1.292 0 2.188.917.896.917.896 2.167 0 1.291-.917 2.208-.917.917-2.167.917Zm16.75 0q-1.291 0-2.187-.917-.896-.917-.896-2.208 0-1.292.917-2.188.916-.896 2.166-.896 1.292 0 2.209.917.916.917.916 2.167 0 1.291-.916 2.208-.917.917-2.209.917ZM2.292 6.125V3.333h5.041l7.084 15.125h11.875l6.625-11.666h3.125l-6.959 12.833q-.458.792-1.208 1.271-.75.479-1.625.479H13.708l-2.166 4h20.291v2.75H11.792q-1.667 0-2.542-1.375-.875-1.375-.125-2.792l2.542-4.625L5.542 6.125Z"/></svg>